<mxfile host="app.diagrams.net" modified="2022-04-26T20:57:03.212Z" agent="5.0 (Macintosh; Intel Mac OS X 10_15_7) AppleWebKit/537.36 (KHTML, like Gecko) Chrome/99.0.4844.84 Safari/537.36 OPR/85.0.4341.75" etag="NyrsLOQ_rQjTXISjvdY5" version="17.4.6" type="github">
  <diagram id="ji13-s1qjL8ou1RABo7J" name="Page-1">
    <mxGraphModel dx="666" dy="698" grid="1" gridSize="10" guides="1" tooltips="1" connect="1" arrows="1" fold="1" page="1" pageScale="1" pageWidth="850" pageHeight="1100" math="0" shadow="0">
      <root>
        <mxCell id="0" />
        <mxCell id="1" parent="0" />
        <mxCell id="3zQKJhW49B3SMrjvigrW-3" style="edgeStyle=orthogonalEdgeStyle;rounded=0;orthogonalLoop=1;jettySize=auto;html=1;exitX=0.5;exitY=1;exitDx=0;exitDy=0;" edge="1" parent="1" source="3zQKJhW49B3SMrjvigrW-1" target="3zQKJhW49B3SMrjvigrW-2">
          <mxGeometry relative="1" as="geometry" />
        </mxCell>
        <mxCell id="3zQKJhW49B3SMrjvigrW-1" value="start" style="rounded=1;whiteSpace=wrap;html=1;arcSize=50;" vertex="1" parent="1">
          <mxGeometry x="240" y="50" width="120" height="60" as="geometry" />
        </mxCell>
        <mxCell id="3zQKJhW49B3SMrjvigrW-5" style="edgeStyle=orthogonalEdgeStyle;rounded=0;orthogonalLoop=1;jettySize=auto;html=1;exitX=0.5;exitY=1;exitDx=0;exitDy=0;" edge="1" parent="1" source="3zQKJhW49B3SMrjvigrW-2" target="3zQKJhW49B3SMrjvigrW-4">
          <mxGeometry relative="1" as="geometry" />
        </mxCell>
        <mxCell id="3zQKJhW49B3SMrjvigrW-2" value="load preset json" style="shape=parallelogram;perimeter=parallelogramPerimeter;whiteSpace=wrap;html=1;fixedSize=1;" vertex="1" parent="1">
          <mxGeometry x="240" y="170" width="120" height="60" as="geometry" />
        </mxCell>
        <mxCell id="3zQKJhW49B3SMrjvigrW-4" value="get scene blend shape nodes" style="shape=parallelogram;perimeter=parallelogramPerimeter;whiteSpace=wrap;html=1;fixedSize=1;" vertex="1" parent="1">
          <mxGeometry x="240" y="270" width="120" height="60" as="geometry" />
        </mxCell>
      </root>
    </mxGraphModel>
  </diagram>
</mxfile>
